<svg width="128" height="128" viewBox="0 0 128 128" fill="none" xmlns="http://www.w3.org/2000/svg">
<rect width="128" height="128" rx="16" fill="white"/>
<svg x="34" y="6" width="60" height="116" viewBox="210 79.5 180 344">
<path d="M354.084 209.51C361.429 209.042 369.198 209.518 376.584 209.344C378.834 209.29 387.022 208.954 388.437 210.436C389.404 213.73 389.026 227.982 389.026 232.375L389.023 267.893L389.029 326.312C389.029 338.068 389.343 351.277 388.572 362.816C388.118 369.372 386.791 375.838 384.629 382.045C379.722 395.776 368.829 406.304 355.827 412.497C348.488 415.963 340.76 418.538 332.808 420.167C310.168 424.854 275.011 424.294 253.01 416.54C236.311 410.655 223.323 401.562 215.589 385.218C208.284 367.884 210.533 349.314 210.164 330.952C210.116 328.577 209.7 322.709 211.116 320.989C214.046 319.776 238.544 319.873 242.692 320.371C243.427 320.459 245.44 320.682 245.935 321.221C248.754 324.285 242.535 363.868 251.175 374.566C258.415 383.531 274.499 386.009 285.339 387.128C301.733 388.821 332.064 388.054 345.309 377.118C349.106 373.986 350.621 370.225 351.535 365.467C353.492 355.288 352.622 338.519 352.622 327.689L352.61 249.168L352.596 224.782C352.593 220.582 352.496 216.154 352.716 211.963C352.789 210.506 353.164 210.262 354.084 209.51Z" fill="#1BAA98"/>
<path d="M294.099 80.3187C333.922 79.1229 384.781 89.1558 388.476 138.094C388.898 143.697 389.844 178.886 388.303 182.08C386.234 183.714 381.79 183.237 379.18 183.189C372.119 183.058 365.103 183.256 358.042 183.264C356.952 183.266 354.359 183.101 353.498 182.191C352.332 180.306 352.578 175.749 352.581 173.735L352.619 157.357C352.64 148.703 353.472 133.956 346.956 127.667C336.822 117.89 315.896 115.921 302.413 115.685C287.542 115.424 263.953 116.996 252.561 127.458C244.961 134.438 246.52 156.701 246.54 167.338L246.538 249.001C246.538 262.535 246.589 276.072 246.521 289.605C246.408 290.542 246.54 293.542 245.213 293.596C239.249 293.84 214.777 295.208 210.629 293.018C209.672 290.377 210.173 265.632 210.173 260.742L210.178 203.621L210.171 164.609C210.172 153.519 209.827 142.906 211.743 131.91C218.772 91.5533 258.587 81.5137 294.099 80.3187Z" fill="#1A1A12"/>
</svg>
</svg>
