<svg width="600" height="600" viewBox="0 0 600 600" fill="none" xmlns="http://www.w3.org/2000/svg">
<g clip-path="url(#clip0_6_1677)">
<path d="M354.084 209.51C361.429 209.042 369.198 209.518 376.584 209.344C378.834 209.29 387.022 208.954 388.437 210.436C389.404 213.73 389.026 227.982 389.026 232.375L389.023 267.893L389.029 326.312C389.029 338.068 389.343 351.277 388.572 362.816C388.118 369.372 386.791 375.838 384.629 382.045C379.722 395.776 368.829 406.304 355.827 412.497C348.488 415.963 340.76 418.538 332.808 420.167C310.168 424.854 275.011 424.294 253.01 416.54C236.311 410.655 223.323 401.562 215.589 385.218C208.284 367.884 210.533 349.314 210.164 330.952C210.116 328.577 209.7 322.709 211.116 320.989C214.046 319.776 238.544 319.873 242.692 320.371C243.427 320.459 245.44 320.682 245.935 321.221C248.754 324.285 242.535 363.868 251.175 374.566C258.415 383.531 274.499 386.009 285.339 387.128C301.733 388.821 332.064 388.054 345.309 377.118C349.106 373.986 350.621 370.225 351.535 365.467C353.492 355.288 352.622 338.519 352.622 327.689L352.61 249.168L352.596 224.782C352.593 220.582 352.496 216.154 352.716 211.963C352.789 210.506 353.164 210.262 354.084 209.51Z" fill="#1BAA98"/>
<path d="M294.099 80.3187C333.922 79.1229 384.781 89.1558 388.476 138.094C388.898 143.697 389.844 178.886 388.303 182.08C386.234 183.714 381.79 183.237 379.18 183.189C372.119 183.058 365.103 183.256 358.042 183.264C356.952 183.266 354.359 183.101 353.498 182.191C352.332 180.306 352.578 175.749 352.581 173.735L352.619 157.357C352.64 148.703 353.472 133.956 346.956 127.667C336.822 117.89 315.896 115.921 302.413 115.685C287.542 115.424 263.953 116.996 252.561 127.458C244.961 134.438 246.52 156.701 246.54 167.338L246.538 249.001C246.538 262.535 246.589 276.072 246.521 289.605C246.408 290.542 246.54 293.542 245.213 293.596C239.249 293.84 214.777 295.208 210.629 293.018C209.672 290.377 210.173 265.632 210.173 260.742L210.178 203.621L210.171 164.609C210.172 153.519 209.827 142.906 211.743 131.91C218.772 91.5533 258.587 81.5137 294.099 80.3187Z" fill="#1A1A12"/>
</g>
<path d="M507.007 518.322C511.005 519.774 515.37 520.5 520.104 520.5C526.311 520.5 531.229 519.495 534.859 517.484C538.54 515.436 540.381 512.494 540.381 508.658C540.381 505.642 538.988 503.109 536.2 501.061C533.465 498.976 529.02 497.412 522.866 496.369C519.237 495.736 516.897 495.526 515.118 495C513.339 494.474 510.995 493.762 510.118 493C509.241 492.238 509.11 491.491 509.11 490.895C509.11 489.368 509.873 488.251 511.398 487.544C512.976 486.799 516.646 486 519.118 486C521.485 486 523.118 486 525.118 486.5C527.118 487 532.514 489.606 533.618 490.5L537.618 484.5C535.725 483.234 531.834 481.455 529.099 480.673C526.364 479.891 523.208 479.5 519.631 479.5C515.739 479.5 512.346 480.003 509.453 481.008C506.613 481.976 504.404 483.336 502.826 485.086C501.248 486.836 500.459 488.884 500.459 491.23C500.459 494.06 501.668 496.425 504.088 498.324C506.507 500.223 510.268 501.601 515.37 502.458C519.578 503.165 522.618 504 524.618 504.5C526.618 505 529.118 505.5 530.118 506C531.118 506.5 531.572 507.839 531.572 508.77C531.572 510.222 531.415 511.116 529.758 512.289C528.548 513.145 524.128 513.574 520.499 513.574C516.817 513.574 512.775 513.08 510.618 512C508.462 510.92 504.351 508.999 502.826 507.062L497.618 512.289C500.459 515.5 503.062 516.832 507.007 518.322Z" fill="#1BAA98"/>
<path d="M354.007 518.322C358.005 519.774 362.37 520.5 367.104 520.5C373.311 520.5 378.229 519.495 381.859 517.484C385.54 515.436 387.381 512.494 387.381 508.658C387.381 505.642 385.988 503.109 383.2 501.061C380.465 498.976 376.02 497.412 369.866 496.369C366.237 495.736 363.897 495.526 362.118 495C360.339 494.474 357.995 493.762 357.118 493C356.241 492.238 356.11 491.491 356.11 490.895C356.11 489.368 356.873 488.251 358.398 487.544C359.976 486.799 363.646 486 366.118 486C368.485 486 370.118 486 372.118 486.5C374.118 487 379.514 489.606 380.618 490.5L384.618 484.5C382.725 483.234 378.834 481.455 376.099 480.673C373.364 479.891 370.208 479.5 366.631 479.5C362.739 479.5 359.346 480.003 356.453 481.008C353.613 481.976 351.404 483.336 349.826 485.086C348.248 486.836 347.459 488.884 347.459 491.23C347.459 494.06 348.668 496.425 351.088 498.324C353.507 500.223 357.268 501.601 362.37 502.458C366.578 503.165 369.618 504 371.618 504.5C373.618 505 376.118 505.5 377.118 506C378.118 506.5 378.572 507.839 378.572 508.77C378.572 510.222 378.415 511.116 376.758 512.289C375.548 513.145 371.128 513.574 367.499 513.574C363.817 513.574 359.775 513.08 357.618 512C355.462 510.92 351.351 508.999 349.826 507.062L344.618 512.289C347.459 515.5 350.062 516.832 354.007 518.322Z" fill="#1BAA98"/>
<path d="M448.618 519.5V480.5H457.224L477.946 506.853V480.5H486.618V519.5H478.409L457.224 492.256V519.5H448.618Z" fill="#1BAA98"/>
<path d="M417.151 520.5C413.018 520.5 409.321 519.664 406.058 517.993C402.796 516.322 400.229 513.964 398.359 510.918C396.532 507.836 395.618 504.215 395.618 500.056C395.618 495.859 396.532 492.238 398.359 489.193C400.229 486.111 402.796 483.734 406.058 482.062C409.321 480.354 413.018 479.5 417.151 479.5C421.283 479.5 424.959 480.354 428.178 482.062C431.441 483.734 433.985 486.111 435.812 489.193C437.683 492.238 438.618 495.859 438.618 500.056C438.618 504.215 437.683 507.836 435.812 510.918C433.985 513.964 431.441 516.322 428.178 517.993C424.959 519.664 421.283 520.5 417.151 520.5ZM416.897 513.171C419.507 513.171 421.748 512.614 423.618 511.5C425.532 510.349 427.243 509.08 428.243 507.075C429.287 505.069 429.809 502.73 429.809 500.056C429.809 497.345 429.287 494.986 428.243 492.981C427.243 490.976 425.974 489.614 424.06 488.5C422.189 487.349 419.949 486.773 417.339 486.773C414.772 486.773 412.532 487.349 410.618 488.5C408.748 489.614 407.102 490.976 406.058 492.981C405.014 494.986 404.492 497.345 404.492 500.056C404.492 502.73 405.014 505.069 406.058 507.075C407.102 509.08 408.306 510.349 410.177 511.5C412.091 512.614 414.331 513.171 416.897 513.171Z" fill="#1BAA98"/>
<path d="M315.118 520.5C310.702 520.5 307.12 519.942 304.374 518.826C301.681 517.673 299.715 516.093 298.476 514.084C297.238 512.039 296.618 509.696 296.618 507.055H307.12C307.12 509.287 307.794 510.904 309.14 511.909C310.486 512.913 312.479 513.415 315.118 513.415C317.757 513.415 319.723 512.913 321.016 511.909C322.362 510.904 323.035 509.287 323.035 507.055V480.5H333.618V507.055C333.618 509.696 332.999 512.039 331.76 514.084C330.521 516.093 328.529 517.673 325.782 518.826C323.089 519.942 319.534 520.5 315.118 520.5Z" fill="#1BAA98"/>
<path d="M244.527 520.5C240.131 520.5 236.197 519.664 232.726 517.993C229.255 516.322 226.524 513.964 224.534 510.918C222.59 507.836 221.618 504.215 221.618 500.056C221.618 495.859 222.59 492.238 224.534 489.193C226.524 486.111 229.255 483.734 232.726 482.063C236.197 480.354 240.131 479.5 244.527 479.5C248.646 479.5 252.349 480.243 255.635 481.728C258.967 483.214 261.628 485.293 263.618 487.967L255.565 491.7C254.408 490.066 252.881 488.803 250.983 487.912C249.132 487.02 246.98 486.575 244.527 486.575C241.797 486.575 239.413 487.15 237.377 488.302C235.387 489.416 233.836 490.976 232.726 492.981C231.615 494.986 231.059 497.345 231.059 500.056C231.059 502.73 231.615 505.069 232.726 507.075C233.836 509.08 235.387 510.659 237.377 511.81C239.413 512.924 241.797 513.481 244.527 513.481C246.98 513.481 249.132 513.035 250.983 512.144C252.881 511.216 254.408 509.953 255.565 508.356L263.618 512.088C261.628 514.725 258.967 516.786 255.635 518.272C252.349 519.757 248.646 520.5 244.527 520.5Z" fill="black"/>
<path d="M171.618 519.5V480.5H195.618C198.877 480.5 201.692 480.871 204.063 481.614C206.482 482.357 208.334 483.564 209.618 485.236C210.951 486.907 211.618 489.154 211.618 491.977C211.618 495.469 210.606 498.106 208.581 499.889C206.606 501.634 203.865 502.749 200.359 503.231L210.877 519.5H199.692L190.507 503.566H181.248V519.5H171.618ZM181.248 496.824H194.285C196.507 496.824 198.26 496.453 199.544 495.71C200.828 494.967 201.47 493.723 201.47 491.977C201.47 490.269 200.828 489.043 199.544 488.3C198.26 487.557 196.507 487.186 194.285 487.186H181.248V496.824Z" fill="black"/>
<path d="M114.618 519.5L133.492 480.5H141.745L160.618 519.5H150.069L146.696 511.756H128.253L124.88 519.5H114.618ZM131.267 505.07H143.754L137.582 490.919L131.267 505.07Z" fill="black"/>
<path d="M59.6182 519.5V480.5H68.3662L81.1518 498.886L93.8028 480.5H102.618V519.5H93.7355V493.036L83.6416 508.19L81.1518 512L78.5274 508.19L68.4335 493.036V519.5H59.6182Z" fill="black"/>
<defs>
<clipPath id="clip0_6_1677">
<rect width="180" height="344" fill="white" transform="translate(210 79.5)"/>
</clipPath>
</defs>
</svg>
